<svg xmlns="http://www.w3.org/2000/svg" viewBox="0,0,24.54086,24.10779">
    <g transform="translate(-227.64628,-167.88021)" fill="none" stroke="#303142" stroke-width="1">
        <path d="M234.97,168.38v23.44v-21.20h-6.77"/>
        <path d="M248.70,171.94c0,0 0,-0.66052 0,-0.90c0,-0.1643 0.20377,-0.41308 0.39,-0.41c0.47666,0 2.53617,0 2.53,0"/>
        <path d="M236.52,168.41v23.45v-19.60h-8.34"/>
        <path d="M247.78,173.58c0,0 0,-0.77232 0,-1.01005c0,-0.12973 0.15318,-0.30077 0.31,-0.30c0.54651,0 3.58349,0 3.58,0"/>
        <path d="M238.35,168.49v23.38v-18.04h-10.20"/>
        <path d="M239.99,168.52v23.29v-16.35h-11.81"/>
        <path d="M246.15,175.47h5.5"/>
        <path d="M246.64,191.98v-4.93h5.06"/>
        <path d="M246.65,187.07v-11.5"/>
        <path d="M247.03,175.26c0,0 0,-0.80591 0,-1.06c0,-0.15463 0.11722,-0.36798 0.25,-0.36c0.56266,0 4.33769,0 4.33,0"/>
        <path d="M240.27,178.13h3.38l3,3"/>
    </g>
</svg>