<svg xmlns="http://www.w3.org/2000/svg" viewBox="0,0,41.68389,33.69663">
    <g transform="translate(-219.15805,-163.1715)">
        <g fill-rule="nonzero" stroke-linejoin="round">
            <path
                d="M225.70898,165.21654c3.1548,1.57325 22.77079,11.35542 28.96712,14.44543c1.18024,0.58857 1.0994,1.31717 -0.20551,1.96242c-6.42541,3.17722 -25.71809,12.71703 -28.80561,14.24374c-0.81764,0.4043 -1.49643,-0.05354 -1.49643,-1.38695c0,-6.43929 0,-25.47016 0,-28.5353c0,-0.81766 0.70107,-1.14792 1.54043,-0.72935z"
                fill="#3212b3" stroke="#1f30cc" stroke-width="2" />
            <path
                d="M225.70898,164.1715c3.1548,1.57325 22.77079,11.35542 28.96712,14.44543c1.18024,0.58857 1.0994,1.31717 -0.20551,1.96242c-6.42541,3.17722 -25.71809,12.71703 -28.80561,14.24374c-0.81764,0.4043 -1.49643,-0.05354 -1.49643,-1.38695c0,-6.43929 0,-25.47016 0,-28.5353c0,-0.81766 0.70107,-1.14792 1.54043,-0.72935z"
                fill="#3212b3" stroke="#1664d9" stroke-width="2" />
            <path class="oneBitConnector"
                d="M255.42745,179.42055c0,-1.3571 1.10015,-2.45725 2.45725,-2.45725c1.3571,0 2.45725,1.10015 2.45725,2.45725c0,1.3571 -1.10015,2.45725 -2.45725,2.45725c-1.3571,0 -2.45725,-1.10015 -2.45725,-2.45725z"
                fill="#333333" stroke="#4d4d4d" stroke-width="1" />
            <g fill="#333333" stroke="#4d4d4d" stroke-width="1">
                <path class="oneBitConnector inputConnector"
                    d="M219.65806,179.42055c0,-1.3571 1.10015,-2.45725 2.45725,-2.45725c1.3571,0 2.45725,1.10015 2.45725,2.45725c0,1.3571 -1.10015,2.45725 -2.45725,2.45725c-1.3571,0 -2.45725,-1.10015 -2.45725,-2.45725z" />
            </g><text transform="translate(226.00005,182.06564) scale(0.22433,0.22433)" font-size="40"
                xml:space="preserve" fill="#99c2ff" fill-rule="nonzero" stroke="none" stroke-width="1"
                stroke-linejoin="round"  
                 font-family="Sans-Serif" font-weight="normal" text-anchor="start">
                <tspan x="0" dy="0">NOT</tspan>
            </text>
        </g>
    </g>
</svg>