<svg xmlns="http://www.w3.org/2000/svg" width="40.22685"
    height="39.16084" viewBox="0,0,40.22685,39.16084">
    <g transform="translate(-220.95559,-160.95559)">
        <path class="shadow"
            d="M222.19303,181.07201c0,-9.96565 8.07876,-18.04441 18.04441,-18.04441c9.96565,0 18.04442,8.07876 18.04442,18.04441c0,9.96565 -8.07876,18.04441 -18.04442,18.04441c-9.96565,0 -18.04441,-8.07876 -18.04441,-18.04441z"
            stroke="#bfbfbf" stroke-width="2" />
        <path class="ring"
            d="M221.95559,180c0,-9.96565 8.07876,-18.04441 18.04441,-18.04441c9.96565,0 18.04441,8.07876 18.04441,18.04441c0,9.96565 -8.07876,18.04441 -18.04441,18.04441c-9.96565,0 -18.04441,-8.07876 -18.04441,-18.04441z"
            fill="#999999" stroke="#cccccc" stroke-width="2" />
        <path class="oneBitConnector"
            d="M255.76794,179.38424c0,-1.3571 1.10015,-2.45725 2.45725,-2.45725c1.3571,0 2.45725,1.10015 2.45725,2.45725c0,1.3571 -1.10015,2.45725 -2.45725,2.45725c-1.3571,0 -2.45725,-1.10015 -2.45725,-2.45725z"
            fill="#333333" stroke="#4d4d4d" stroke-width="1"/>
        <text
            transform="translate(235.50128,184.52322) scale(0.39205,0.39205)" font-size="40"
            fill="#ffffff" stroke-miterlimit="10" font-family="Sans-Serif">
            <tspan x="0" dy="0">0</tspan>
        </text>
    </g>
</svg>