<svg xmlns="http://www.w3.org/2000/svg" viewBox="0 0 75.687 75.533"><g data-paper-data="{&quot;isPaintingLayer&quot;:true}" stroke-miterlimit="10" style="mix-blend-mode:normal"><g fill="none" stroke="#557" stroke-linecap="round"><path class="prefix__grayWire" d="M21.74 27.805H7.309c-.704 0-1.382-.627-1.382-1.307V10.043"/><path class="prefix__grayWire" d="M21.564 29.715H5.733c-.704 0-1.64-.886-1.64-1.565V11.953"/><path class="prefix__grayWire" d="M21.615 31.624H4.284c-.704 0-1.95-1.143-1.95-1.823V13.862"/><path class="prefix__grayWire" d="M21.59 33.458H2.707c-.703 0-2.207-1.401-2.207-2.08V15.695"/><g data-paper-data="{&quot;index&quot;:null}"><path class="prefix__grayWire" d="M5.964 65.466V49.011c0-.68.679-1.307 1.383-1.307h14.43"/><path class="prefix__grayWire" d="M4.13 63.557V47.36c0-.68.937-1.565 1.64-1.565h15.832"/><path class="prefix__grayWire" d="M2.372 61.647V45.708c0-.68 1.246-1.823 1.95-1.823h17.33"/><path class="prefix__grayWire" d="M.538 59.813v-15.68c0-.68 1.504-2.082 2.207-2.082h18.882"/></g></g><g fill="none" stroke="#933" stroke-linecap="round"><path class="prefix__redWire" d="M21.762 27.757H7.332c-.704 0-1.383-.627-1.383-1.307V9.995"/><path class="prefix__redWire" d="M21.587 29.667H5.755c-.703 0-1.64-.886-1.64-1.565V11.905"/><path class="prefix__redWire" d="M21.637 31.576H4.306c-.704 0-1.95-1.143-1.95-1.823V13.814"/><path class="prefix__redWire" d="M21.612 33.41H2.73c-.704 0-2.208-1.401-2.208-2.08V15.647"/><g data-paper-data="{&quot;index&quot;:null}"><path class="prefix__redWire" d="M5.987 65.418V48.963c0-.68.678-1.307 1.382-1.307H21.8"/><path class="prefix__redWire" d="M4.153 63.509V47.312c0-.68.936-1.565 1.64-1.565h15.831"/><path class="prefix__redWire" d="M2.394 61.6V45.66c0-.68 1.246-1.823 1.95-1.823h17.33"/><path class="prefix__redWire" d="M.56 59.765v-15.68c0-.68 1.504-2.082 2.208-2.082H21.65"/></g></g><path d="M37.867 22.105V1.262" fill="none" stroke="#644" stroke-width="2.5" stroke-linecap="round"/><path class="prefix__redAlim" d="M37.822 22.093V1.25" fill="none" stroke="#822" stroke-width="2.5" stroke-linecap="round"/><g fill="none" stroke="#557" stroke-linecap="round"><path class="prefix__grayWire" d="M27.918 53.793v14.431c0 .704-.627 1.382-1.307 1.382H10.156"/><path class="prefix__grayWire" d="M29.827 53.97V69.8c0 .704-.885 1.64-1.565 1.64H12.065"/><path class="prefix__grayWire" d="M31.737 53.919v17.33c0 .704-1.143 1.95-1.823 1.95h-15.94"/><path class="prefix__grayWire" d="M33.57 53.943v18.883c0 .703-1.4 2.207-2.08 2.207H15.809"/><g data-paper-data="{&quot;index&quot;:null}"><path class="prefix__grayWire" d="M65.579 69.569H49.124c-.68 0-1.307-.679-1.307-1.382V53.756"/><path class="prefix__grayWire" d="M63.67 71.403H47.473c-.68 0-1.565-.937-1.565-1.64V53.93"/><path class="prefix__grayWire" d="M61.76 73.161H45.821c-.68 0-1.823-1.246-1.823-1.95v-17.33"/><path class="prefix__grayWire" d="M59.926 74.995h-15.68c-.68 0-2.082-1.503-2.082-2.207V53.906"/></g></g><g fill="none" stroke="#557" stroke-linecap="round"><path class="prefix__grayWire" d="M69.76 10.004V26.46c0 .68-.678 1.307-1.382 1.307h-14.43"/><path class="prefix__grayWire" d="M71.594 11.914V28.11c0 .68-.936 1.566-1.64 1.566H54.123"/><path class="prefix__grayWire" d="M73.353 13.823v15.939c0 .68-1.246 1.823-1.95 1.823h-17.33"/><path class="prefix__grayWire" d="M75.187 15.657v15.681c0 .68-1.504 2.081-2.208 2.081H54.097"/><g data-paper-data="{&quot;index&quot;:null}"><path class="prefix__grayWire" d="M53.91 47.665h14.43c.704 0 1.382.627 1.382 1.307v16.455"/><path class="prefix__grayWire" d="M54.085 45.756h15.831c.704 0 1.64.885 1.64 1.565v16.197"/><path class="prefix__grayWire" d="M54.035 43.846h17.33c.704 0 1.95 1.144 1.95 1.823v15.94"/><path class="prefix__grayWire" d="M54.06 42.012h18.882c.703 0 2.207 1.401 2.207 2.081v15.681"/></g></g><g fill="none" stroke="#933" stroke-linecap="round"><path class="prefix__redWire" d="M69.749 9.972v16.454c0 .68-.679 1.308-1.382 1.308H53.936"/><path class="prefix__redWire" d="M71.583 11.88v16.198c0 .68-.937 1.565-1.64 1.565H54.11"/><path class="prefix__redWire" d="M73.341 13.79v15.94c0 .68-1.245 1.822-1.95 1.822h-17.33"/><path class="prefix__redWire" d="M75.175 15.624v15.681c0 .68-1.503 2.081-2.207 2.081H54.086"/><g data-paper-data="{&quot;index&quot;:null}"><path class="prefix__redWire" d="M53.898 47.632h14.43c.705 0 1.383.628 1.383 1.308v16.454"/><path class="prefix__redWire" d="M54.074 45.723h15.831c.704 0 1.64.885 1.64 1.565v16.197"/><path class="prefix__redWire" d="M54.023 43.814h17.331c.704 0 1.95 1.143 1.95 1.823v15.939"/><path class="prefix__redWire" d="M54.048 41.98H72.93c.704 0 2.208 1.4 2.208 2.08v15.682"/></g></g><g fill="none" stroke="#933" stroke-linecap="round"><path class="prefix__redWire" d="M27.872 53.757v14.43c0 .704-.627 1.383-1.307 1.383H10.11"/><path class="prefix__redWire" d="M29.782 53.932v15.832c0 .703-.885 1.64-1.565 1.64H12.02"/><path class="prefix__redWire" d="M31.691 53.882v17.33c0 .704-1.143 1.95-1.823 1.95H13.93"/><path class="prefix__redWire" d="M33.525 53.907v18.882c0 .703-1.4 2.207-2.08 2.207H15.762"/><g data-paper-data="{&quot;index&quot;:null}"><path class="prefix__redWire" d="M65.533 69.532H49.08c-.68 0-1.308-.679-1.308-1.382V53.719"/><path class="prefix__redWire" d="M63.624 71.366H47.427c-.68 0-1.565-.937-1.565-1.64V53.894"/><path class="prefix__redWire" d="M61.715 73.124h-15.94c-.68 0-1.822-1.245-1.822-1.95v-17.33"/><path class="prefix__redWire" d="M59.88 74.958H44.2c-.68 0-2.081-1.503-2.081-2.207V53.869"/></g></g><path d="M21.816 50.213v-24.81c0-1.847 1.883-3.783 3.693-3.783h24.216c2.533 0 4.194 1.928 4.194 3.77v24.108c0 2.55-2.209 4.225-4.244 4.225H25.571c-2.282 0-3.755-1.367-3.755-3.51z" fill="#668" stroke="#557" stroke-width="1.5"/><g fill="#335" stroke-width="0"><path class="prefix__grayWire" d="M27.396 54.477v-.534c0-.055.08-.122.152-.122h.723c.093 0 .156.067.156.122v.534zM29.31 54.465v-.535c0-.055.081-.122.153-.122h.723c.093 0 .156.067.156.122v.535zM31.214 54.468v-.534c0-.055.08-.122.152-.122h.723c.094 0 .157.067.157.122v.534zM33.053 54.47v-.534c0-.055.08-.122.152-.122h.723c.093 0 .156.067.156.122v.535z"/><g data-paper-data="{&quot;index&quot;:null}"><path class="prefix__grayWire" d="M47.313 54.46v-.534c0-.055.064-.122.157-.122h.723c.072 0 .152.067.152.122v.535zM45.398 54.448v-.534c0-.056.064-.123.157-.123h.723c.072 0 .152.067.152.123v.534zM43.495 54.452v-.535c0-.055.063-.122.156-.122h.723c.072 0 .152.067.152.122v.535zM41.656 54.454v-.534c0-.055.064-.122.157-.122h.723c.072 0 .152.067.152.122v.534z"/></g></g><g fill="#335" stroke-width="0"><path class="prefix__grayWire" d="M21.056 27.283h.534c.055 0 .122.08.122.152v.723c0 .093-.067.157-.122.157h-.534zM21.069 29.198h.534c.055 0 .122.08.122.152v.723c0 .093-.067.157-.122.157h-.534zM21.065 31.101h.534c.055 0 .122.08.122.153v.722c0 .094-.067.157-.122.157h-.534zM21.062 32.94h.535c.055 0 .122.08.122.152v.723c0 .093-.067.157-.122.157h-.535z"/><g data-paper-data="{&quot;index&quot;:null}"><path class="prefix__grayWire" d="M21.072 47.2h.535c.055 0 .122.064.122.157v.723c0 .072-.067.152-.122.152h-.535zM21.085 45.286h.535c.055 0 .122.063.122.156v.723c0 .072-.067.152-.122.152h-.535zM21.082 43.382h.534c.055 0 .122.063.122.157v.723c0 .071-.067.152-.122.152h-.534zM21.079 41.544h.534c.055 0 .122.063.122.156v.723c0 .072-.067.152-.122.152h-.534z"/></g></g><g fill="#335" stroke-width="0"><path class="prefix__grayWire" d="M54.631 28.275h-.534c-.055 0-.123-.063-.123-.156v-.723c0-.072.068-.152.123-.152h.534zM54.618 30.19h-.534c-.055 0-.122-.063-.122-.156v-.723c0-.072.067-.152.122-.152h.534zM54.622 32.094h-.534c-.056 0-.123-.063-.123-.157v-.723c0-.071.067-.152.123-.152h.534zM54.625 33.932h-.535c-.055 0-.122-.063-.122-.156v-.723c0-.072.067-.152.122-.152h.535z"/><g data-paper-data="{&quot;index&quot;:null}"><path class="prefix__grayWire" d="M54.614 48.193h-.534c-.055 0-.122-.08-.122-.152v-.723c0-.093.067-.156.122-.156h.534zM54.602 46.278h-.535c-.055 0-.122-.08-.122-.152v-.723c0-.093.067-.156.122-.156h.535zM54.605 44.375h-.534c-.055 0-.122-.08-.122-.152V43.5c0-.094.067-.157.122-.157h.534zM54.608 42.536h-.534c-.056 0-.123-.08-.123-.152v-.723c0-.093.067-.156.123-.156h.534z"/></g></g><path d="M34.982 35.543h-4.035M35.044 39.75h-4.036" fill="none" stroke="#229" stroke-linecap="round"/><path d="M44.788 37.808h-4.035" fill="#c55" stroke="#229" stroke-linecap="round"/><path d="M34.772 33.754s6.796.211 6.726 4.054c-.074 4.071-6.726 4.053-6.726 4.053z" data-paper-data="{&quot;index&quot;:null}" fill="#3333ab"/><g><path d="M34.982 35.27h-4.035M35.044 39.477h-4.036" fill="none" stroke="#4343ba" stroke-linecap="round"/><path d="M44.788 37.535h-4.035" fill="#c55" stroke="#4343ba" stroke-linecap="round"/><path d="M34.772 33.482s6.796.21 6.726 4.053c-.074 4.071-6.726 4.054-6.726 4.054z" data-paper-data="{&quot;index&quot;:null}" fill="#5656cc"/></g><path d="M39.121 20.857v.714c0 .055-.063.122-.156.122h-2.2c-.072 0-.153-.067-.153-.122v-.714z" fill="#543232"/></g></svg>