<svg xmlns="http://www.w3.org/2000/svg" viewBox="0,0,42.36481,37.0006"><g transform="translate(-218.81761,-161.4997)"><g fill-rule="nonzero" stroke-linejoin="round"><path d="M222.55293,195.42249c0,-6.65789 0,-27.21081 0,-30.36082c0,-0.7951 0.52132,-1.4443 1.39718,-1.4443c3.25095,0 11.38634,0 15.87789,0c5.59046,0 16.28627,1.22546 16.60787,16.66784c0.33536,16.10336 -11.16359,17.21509 -16.78431,17.21509c-4.32512,0 -11.99374,0 -15.39386,0c-1.0597,0 -1.70477,-0.77141 -1.70477,-2.07781z" fill="#3212b3" stroke="#1f30cc" stroke-width="2"/><path d="M222.55293,194.30482c0,-6.65789 0,-27.21081 0,-30.36082c0,-0.7951 0.52132,-1.4443 1.39718,-1.4443c3.25095,0 11.38634,0 15.87789,0c5.59046,0 16.28627,1.22545 16.60787,16.66784c0.33536,16.10336 -11.16359,17.21509 -16.78431,17.21509c-4.32512,0 -11.99374,0 -15.39386,0c-1.0597,0 -1.70477,-0.77141 -1.70477,-2.07781z" fill="#3212b3" stroke="#1664d9" stroke-width="2"/><path class="oneBitConnector" d="M255.76793,179.38424c0,-1.3571 1.10015,-2.45725 2.45725,-2.45725c1.3571,0 2.45725,1.10015 2.45725,2.45725c0,1.3571 -1.10015,2.45725 -2.45725,2.45725c-1.3571,0 -2.45725,-1.10015 -2.45725,-2.45725z" fill="#333333" stroke="#4d4d4d" stroke-width="1"/><g fill="#333333" stroke="#4d4d4d" stroke-width="1"><path class="oneBitConnector inputConnector" d="M219.31762,169.59924c0,-1.3571 1.10015,-2.45725 2.45725,-2.45725c1.3571,0 2.45725,1.10015 2.45725,2.45725c0,1.3571 -1.10015,2.45725 -2.45725,2.45725c-1.3571,0 -2.45725,-1.10015 -2.45725,-2.45725z"/><path class="oneBitConnector inputConnector" d="M219.31762,189.41929c0,-1.3571 1.10015,-2.45725 2.45725,-2.45725c1.3571,0 2.45725,1.10015 2.45725,2.45725c0,1.3571 -1.10015,2.45725 -2.45725,2.45725c-1.3571,0 -2.45725,-1.10015 -2.45725,-2.45725z"/></g><text transform="translate(226.77575,182.69196) scale(0.22433,0.22433)" font-size="40" xml:space="preserve" fill="#99c2ff" fill-rule="nonzero" stroke="none" stroke-width="1" stroke-linejoin="round" font-family="Sans-Serif" font-weight="normal" text-anchor="start"><tspan x="0" dy="0">NAND</tspan></text></g></g></svg>