<svg xmlns="http://www.w3.org/2000/svg" viewBox="0,0,41.45887,37.74726"><g transform="translate(-220.02552,-161.54362)"><g fill-rule="nonzero" stroke-linejoin="round"><path d="M222.64086,198.29088c13.99154,-6.17593 13.39076,-27.4874 0,-34.72699c-0.33095,0.01281 8.86076,-0.15378 13.97596,0c13.58968,0.40856 20.75103,11.06854 20.75103,16.75066c0,5.88633 -6.41465,17.70396 -20.97874,17.97633c-5.06423,0.09471 -13.79308,0.00876 -13.74825,0z" fill="#3212b3" stroke="#1f30cc" stroke-width="2"/><path d="M221.87174,197.27819c7.19702,-3.00516 7.20021,-31.86609 0.15099,-34.72699c-0.33095,0.01281 8.70977,-0.15378 13.82496,0c13.58968,0.40856 20.75103,11.06854 20.75103,16.75066c0,5.88633 -6.41465,17.70396 -20.97874,17.97633c-5.06423,0.09471 -13.79308,0.00876 -13.74824,0z" fill="#3212b3" stroke="#1664d9" stroke-width="2"/><path class="oneBitConnector" d="M256.06989,179.38424c0,-1.3571 1.10015,-2.45725 2.45725,-2.45725c1.3571,0 2.45725,1.10015 2.45725,2.45725c0,1.3571 -1.10015,2.45725 -2.45725,2.45725c-1.3571,0 -2.45725,-1.10015 -2.45725,-2.45725z" fill="#333333" stroke="#4d4d4d" stroke-width="1"/><text transform="translate(233.61781,182.69196) scale(0.22433,0.22433)" font-size="40" xml:space="preserve" fill="#99c2ff" fill-rule="nonzero" stroke="none" stroke-width="1" stroke-linecap="butt" stroke-linejoin="round" font-family="Sans-Serif" font-weight="normal" text-anchor="start"><tspan x="0" dy="0">OR</tspan></text><g fill="#333333" stroke="#4d4d4d" stroke-width="1"><path class="oneBitConnector inputConnector" d="M220.52552,169.59924c0,-1.3571 1.10015,-2.45725 2.45725,-2.45725c1.3571,0 2.45725,1.10015 2.45725,2.45725c0,1.3571 -1.10015,2.45725 -2.45725,2.45725c-1.3571,0 -2.45725,-1.10015 -2.45725,-2.45725z"/><path class="oneBitConnector inputConnector" d="M220.52552,189.41929c0,-1.3571 1.10015,-2.45725 2.45725,-2.45725c1.3571,0 2.45725,1.10015 2.45725,2.45725c0,1.3571 -1.10015,2.45725 -2.45725,2.45725c-1.3571,0 -2.45725,-1.10015 -2.45725,-2.45725z"/></g></g></g></svg>